<svg id="Calque_1" data-name="Calque 1" xmlns="http://www.w3.org/2000/svg" xmlns:xlink="http://www.w3.org/1999/xlink" viewBox="0 0 193.85 98.1"><defs><linearGradient id="Dégradé_sans_nom_24" x1="34.17" y1="113.84" x2="163.5" y2="-6.76" gradientUnits="userSpaceOnUse"><stop offset="0" stop-color="#4158d0"/><stop offset="0.46" stop-color="#c850c0"/><stop offset="0.54" stop-color="#cc59ba"/><stop offset="0.67" stop-color="#d772aa"/><stop offset="0.83" stop-color="#e99a91"/><stop offset="1" stop-color="#ffcc70"/></linearGradient></defs><g id="svgGroup"><path d="M167.14,98.1,160.3,98V84.57l7.43.1a11.15,11.15,0,0,0,3.75-.64,12.74,12.74,0,0,0,3.35-1.75,13.39,13.39,0,0,0,2.71-2.66,14.4,14.4,0,0,0,1.9-3.35q-2.22.95-4.46,1.86a12.36,12.36,0,0,1-3.64.89q-.47,0-.93,0a24.22,24.22,0,0,1-8.55-1.5c-.18-.07-.36-.13-.53-.21a22.31,22.31,0,0,1-7.45-4.85,22,22,0,0,1-4.42-6.29c-.22-.45-.42-.91-.61-1.38A26.77,26.77,0,0,1,147,54.69V25.78H160.3V54.69a16.07,16.07,0,0,0,.16,2.3,11.78,11.78,0,0,0,.57,2.34c0,.07.05.14.08.22a11.14,11.14,0,0,0,1.07,2.09,9,9,0,0,0,1.1,1.37,8.73,8.73,0,0,0,3.2,2.08,11.27,11.27,0,0,0,3.93.68,8.22,8.22,0,0,0,3.88-1,10.86,10.86,0,0,0,3.2-2.51,12.13,12.13,0,0,0,2.15-3.54,11,11,0,0,0,.78-4.08V25.78h13.43V71.49a26.32,26.32,0,0,1-2.15,10.35A26.7,26.7,0,0,1,186,90.28,27.41,27.41,0,0,1,177.49,96,25.67,25.67,0,0,1,167.14,98.1Zm-81.3-59v39H72.51v-39H66V25.78h6.49V23.29a22.67,22.67,0,0,1,1.83-9.08,23.24,23.24,0,0,1,5-7.4,24,24,0,0,1,7.45-5A22.67,22.67,0,0,1,95.9,0h10V13.28h-10a10.72,10.72,0,0,0-2.87.38,8.54,8.54,0,0,0-1.11.38,9.54,9.54,0,0,0-3.17,2.1,9.94,9.94,0,0,0-2.9,6.62c0,.18,0,.36,0,.53v2.49H102.2V39.06Zm39.6,0v39H112.11v-39h-6.5V25.78h6.5V23.29a22.67,22.67,0,0,1,1.83-9.08,23.24,23.24,0,0,1,5-7.4,24,24,0,0,1,7.45-5A22.67,22.67,0,0,1,135.5,0h10V13.28h-10a10.72,10.72,0,0,0-2.87.38,8.54,8.54,0,0,0-1.11.38,9.54,9.54,0,0,0-3.17,2.1,9.94,9.94,0,0,0-2.9,6.62c0,.18,0,.35,0,.53v2.49H141.8V39.06ZM35,8.06v42A27.2,27.2,0,0,1,32.81,61,27.89,27.89,0,0,1,17.94,75.88,27.2,27.2,0,0,1,7,78.08a29.24,29.24,0,0,1-7-.88v-15a13.44,13.44,0,0,0,3.37,1.42A14.09,14.09,0,0,0,7,64.06,13.58,13.58,0,0,0,12.48,63a14,14,0,0,0,4.46-3,14.35,14.35,0,0,0,3-4.44,13.54,13.54,0,0,0,1.1-5.42v-42ZM58.74,25.78v52.3H45.31V25.78Zm1.67-10.94A8.52,8.52,0,0,0,61,11.57a8.6,8.6,0,0,0-.7-3.44A8.84,8.84,0,0,0,58.4,5.3a9.49,9.49,0,0,0-2.86-1.91,9.05,9.05,0,0,0-7,0A9.17,9.17,0,0,0,45.73,5.3l0,0a9.12,9.12,0,0,0-1.87,2.79,8.6,8.6,0,0,0-.7,3.44,8.54,8.54,0,0,0,.7,3.47,9.15,9.15,0,0,0,1.91,2.81l0,0a8.93,8.93,0,0,0,2.8,1.87,8.93,8.93,0,0,0,7,0,9.46,9.46,0,0,0,2.86-1.9A9,9,0,0,0,60.33,15,1.67,1.67,0,0,0,60.41,14.84Z" transform="translate(0 0)" style="fill:url(#Dégradé_sans_nom_24)"/></g></svg>